{"title":"Sissi.Schicksalsjahre.einer.Kaiserin[1957]DvDrip[de]","uid":5139875,"size":801382131,"categoryP":"video","categoryS":"movies","magnet":"?xt=urn:btih:ac6bf219451e46701c073445328d16da648c4e40&amp;dn=Sissi.Schicksalsjahre.einer.Kaiserin%5B1957%5DDvDrip%5Bde%5D&amp;tr=udp%3A%2F%2Ftracker.openbittorrent.com%3A80&amp;tr=udp%3A%2F%2Fopen.demonii.com%3A1337&amp;tr=udp%3A%2F%2Ftracker.coppersurfer.tk%3A6969&amp;tr=udp%3A%2F%2Fexodus.desync.com%3A6969","seeders":2,"leechers":0,"uploader":null,"files":2,"time":1256825798,"description":"No subtitles, audio in German.\n\n\nGeneral\nComplete name                    : C:Sissi.Schicksalsjahre.einer.Kaiserin[1957]DvDrip[de].avi\nFormat                           : MPEG-PS\nFile size                        : 764 MiB\nDuration                         : 1h 44mn\nOverall bit rate                 : 1 025 Kbps\n\nVideo\nID                               : 224 (0xE0)\nFormat                           : MPEG Video\nFormat version                   : Version 1\nFormat settings, Matrix          : Default\nDuration                         : 1h 44mn\nBit rate mode                    : Variable\nBit rate                         : 872 Kbps\nWidth                            : 352 pixels\nHeight                           : 288 pixels\nDisplay aspect ratio             : 4:3\nFrame rate                       : 25.000 fps\nScan type                        : Progressive\nBits/(Pixel*Frame)               : 0.344\nStream size                      : 650 MiB (85%)\n\nAudio\nID                               : 192 (0xC0)\nFormat                           : MPEG Audio\nFormat version                   : Version 1\nFormat profile                   : Layer 2\nDuration                         : 1h 44mn\nBit rate mode                    : Constant\nBit rate                         : 112 Kbps\nChannel(s)                       : 2 channels\nSampling rate                    : 44.1 KHz\nResolution                       : 16 bits\nStream size                      : 83.5 MiB (11%)\n\n","torrent":{"xt":"urn:btih:ac6bf219451e46701c073445328d16da648c4e40","amp;dn":"Sissi.Schicksalsjahre.einer.Kaiserin%5B1957%5DDvDrip%5Bde%5D","amp;tr":["udp%3A%2F%2Ftracker.openbittorrent.com%3A80","udp%3A%2F%2Fopen.demonii.com%3A1337","udp%3A%2F%2Ftracker.coppersurfer.tk%3A6969","udp%3A%2F%2Fexodus.desync.com%3A6969"],"infoHash":"ac6bf219451e46701c073445328d16da648c4e40","infoHashBuffer":{"type":"Buffer","data":[172,107,242,25,69,30,70,112,28,7,52,69,50,141,22,218,100,140,78,64]},"announce":[],"urlList":[]}}